<svg width="80" height="80" viewBox="0 0 80 80" fill="none" xmlns="http://www.w3.org/2000/svg">
<path d="M10.1552 30.871V37.823C10.1552 47.1452 66.088 49.5152 69.8797 37.823V30.871M10.1552 30.871C27.0666 40.667 58.5039 37.823 69.8797 30.871M10.1552 30.871C7.99998 19.5 71.4997 15.9999 69.8797 30.871M17.5 33.864C34.5 26 49.5 26.337 63.5 33.701M40.0227 34.505L40.0228 51H35.2827M35.2827 51H45.0788C47.6068 45.1539 56.1389 49.894 51.5569 54.634C55.5069 58.1101 48.3968 64.4301 45.0788 58.1101H35.2827C31.9647 64.5881 24.2226 58.9001 29.1207 54.634C23.9066 49.578 33.3867 45.312 35.2827 51Z" stroke="#F7A331" stroke-width="1.5" stroke-linecap="round"/>
</svg>
