<svg width="80" height="80" viewBox="0 0 80 80" fill="none" xmlns="http://www.w3.org/2000/svg">
<path d="M35.5823 22.7378H45.2516M35.5823 22.7378C30.6639 24.9501 27.8623 26.1688 28.0282 30.8675V70.0377C27.8461 73.7099 28.4992 74.8839 31.352 75H48.5755C51.1766 74.7624 51.9892 73.7648 52 70.0377V30.8675C51.7959 26.9161 49.9334 25.2596 45.2516 22.7378M35.5823 22.7378V19.5704M45.2516 22.7378V19.5704M35.5823 19.5704H45.2516M35.5823 19.5704H32.7621C31.8331 19.6514 31.3909 19.5725 31.2513 18.409V15.6639C31.0349 13.9668 31.7721 13.7155 33.5679 13.6579M45.2516 19.5704H48.1726C48.9144 19.4736 49.1095 19.2338 48.9783 18.409V15.3472C48.7832 14.1995 48.4919 13.729 47.1654 13.6579M47.1654 13.6579L45.2516 10.3849C48.3739 3.09987 31.9563 3.31099 34.7766 10.3849L33.5679 13.6579M47.1654 13.6579H42.3306M33.5679 13.6579H38.3018M38.3018 13.6579H42.3306M38.3018 13.6579C36.7267 12.6018 36.6902 10.5961 37.7981 9.3291C38.8054 8.06214 41.122 7.63982 42.4313 9.3291C43.3378 10.3849 43.5393 12.1798 42.3306 13.6579" stroke="#F7A331" stroke-width="1.5" stroke-linejoin="round"/>
</svg>
