<svg width="80" height="80" viewBox="0 0 80 80" fill="none" xmlns="http://www.w3.org/2000/svg">
<path d="M10 42.1875C33.4357 40.5178 46.5643 40.4724 70 42.1875M10 42.1875V52.5M10 42.1875V32.5M70 42.1875V48.9286M70 42.1875V27.5M10 52.5C19.2915 54.0125 24.4578 54.5617 33.25 52.5M10 52.5V58.75V58.75C10 62.2018 12.7982 65 16.25 65H62.8571C66.802 65 70 61.802 70 57.8571V57.8571M70 48.9286C66.1429 47.5893 64.0576 48.9286 60.25 48.9286M70 48.9286V27.5M70 48.9286V57.8571M70 27.5V25C70 19.4772 65.5228 15 60 15H20C14.4772 15 10 19.4772 10 25V32.5M35 24.375C49.4286 22.5893 56.646 27.4961 65.5 24.375M70 57.8571C59.5191 59.1759 52.8571 54.7321 40 57.8571M10 32.5C24.1436 31.0626 32.0352 30.1244 47.25 32.5" stroke="#F7A331" stroke-width="2" stroke-linecap="round"/>
</svg>
